<svg id="f8026312-f960-4d13-9b23-77bce09f35d9" data-name="圖層 1" xmlns="http://www.w3.org/2000/svg" viewBox="0 0 1151.63 862.41"><defs><style>.e78bb319-0a48-4b75-96d8-d010cfda5ee7{fill:#beba68;}.aba8244e-50db-43ab-9745-c4e239cf19d9{fill:#7dbf94;}.ec1bdc9b-9510-463c-8a8a-10f21918e63e{fill:#66998d;}.f07c8470-b6e9-4af8-8abf-0d0fd600df6d{fill:#69ae80;}.a0d509b0-4555-475a-92e4-f6d4da4ed81d{fill:#e1ca6a;}.b110b35d-0bf9-4845-9b36-8ae5d1ccb86b{fill:#90c8c6;}.ad30573c-a3e0-4450-babe-d87377c740d4{fill:#97af6b;}.a3c398d7-626d-4f04-bc34-0f92b66e02ca{fill:#b93c3c;}</style></defs><g id="ae2b68c3-fa6d-45a6-8a76-83e18ac09079" data-name="jpn"><path id="ba70f56f-719d-4250-a3df-c16e1790f1a1" data-name="jpn" class="e78bb319-0a48-4b75-96d8-d010cfda5ee7" d="M1090.1,70.91c-3.67,6.53-4.16,38.71-.92,47.13s-5.54,39.2-2.31,43.41,7.4-7,8.85-13.07,12.41,10.25,15.46,7.48-2.6-8.87-4-15-6.84-8.86-10.56-11.19,5.54-22.42,10.56-30.83,19.47,10.28,19.47,8.86-2.31-5.11-5.54-13.52-15.72-51.34-13.93-60.69-6-28.91-6-31.73c0,0-3.24,16.33-11.08,15.39s-4.6,24.26-4,30.35S1093.82,64.34,1090.1,70.91Z" transform="translate(-4.01 -1.81)"/><path id="f09b75ca-8b51-40b9-9bfb-ee1270aeaabc" data-name="jpn" class="e78bb319-0a48-4b75-96d8-d010cfda5ee7" d="M1074.39,243.58c-9.22-2.78-16.17,24.3-14.76,28.95s-6,25.2-9.7,25.2-14.34,10.29-17.57,15.4-15.24-.45-21.71.94-7.39,16.82-10.14,23.36-13.42.94-29.1.45-48.49,26.62-48.49,26.62l18,4.66,4.64-7.92s20.77-.94,25.86-3.27,12.94-4.7,16.62-3.27,1.85,20.06,4.6,21.93,15.72-20.09,17.58-23.36,15.24,4.21,18,3.76,14.76-7,18.47-9.35,6.91,5.59,16.17,0,4.16-9.31,2.75-14.46,9.25-17.28,7.87-26.14,3.24-13.55,10.63-21.93.45-17.76,0-25.68C1084.12,259.47,1083.64,246.4,1074.39,243.58Z" transform="translate(-4.01 -1.81)"/><path id="a50d4f94-33d1-43be-8474-e19c157874d2" data-name="jpn" class="e78bb319-0a48-4b75-96d8-d010cfda5ee7" d="M1155.25,189.47c-3.24-1.88-14.79,5.1-19,7s-23.08-4.2-37.87-15.4-18-1.39-13.49,3.27-3.6,26.14-5.46,24.75-12.45,4.17-17.1,6-9.7,9.35-7.39,11.23,4.16,14.46,7.39,12.58L1073,236.6s-8.32-8.42-10.63-12.14,10.19.94,14.79-.48,24.49,6.53,29.95,4.2,11.64-15.39,22.71-13.52S1158.48,191.3,1155.25,189.47Z" transform="translate(-4.01 -1.81)"/><path id="bc5e6857-a52f-4520-a356-25133cde6530" data-name="jpn" class="e78bb319-0a48-4b75-96d8-d010cfda5ee7" d="M977,366.34c-5.09-3.27-24-.45-30.29,5.15s-23.74,1.39-23.74,1.39-6-4.17-9.7-.45-12,9.8-10.18,11.19,10.62-.94,12.93,1.88c0,0-1.86,21.48,0,25.68s10.63,0,13.41-3.75,6.92-17.73,8.78-18.22,3.23-9.31,4.6-9.31,5.54,11.68,8.77,10.25S959.41,375,965,376.75,982,369.61,977,366.34Z" transform="translate(-4.01 -1.81)"/></g><g id="a6c27215-e958-4e3c-bd2a-b90fe9498172" data-name="kor"><path id="ee6bfcc5-b95c-4444-bf25-2d4e0bc7a68f" data-name="kor" class="aba8244e-50db-43ab-9745-c4e239cf19d9" d="M927.16,211.55a5.28,5.28,0,0,1-4.24,2.85c-10.22.87-36.16,17.46-38.76,17.46s-2.56,11.68-6.91,11.53-15.13-11.53-17.06-8S827,251.81,824,267.61c4.68.68,18.69,6.76,16.72,13.49s10,20.24,12.67,22.27,12.67,21.59,8.7,31.73-12.71,26.32-6,26.32,36-13.52,42.73-11.49,6.69-26.32,0-39.13-20.7-31.05-20.7-35.75,26.72-16.22,30-25.65,2.68-22.27,12-25c6.43-1.88,12.86-8.49,16.24-12.47Z" transform="translate(-4.01 -1.81)"/><path id="fd98d44a-d091-42ed-8d8d-ef784d555f06" data-name="kor" class="aba8244e-50db-43ab-9745-c4e239cf19d9" d="M857.52,370.66c-2-.19-5.09,3-3,7.63,1.34,2.89,5.62.33,7.73,0s5.28-2,3.94-4.14S859.49,370.81,857.52,370.66Z" transform="translate(-4.01 -1.81)"/></g><path class="ec1bdc9b-9510-463c-8a8a-10f21918e63e" d="M739.46,123.14c8.06,0,26.94,13.64,25.34,22.72s-16.39,3.65-24.45,2.75-18-7.29-24.27,7.25-24.26,6.34-25.15,11.45-29.66,12.17-37.76,8.56-9,16.3-9,25.39-35,21.81-40.44,18.47-39.53,7.89-53.91,14.24-48.54-8.19-53-14.24-40.47.61-57.53,0-27.87-3.94-27.87-12.24S397,177.64,367.48,175.87s-31.55-18.21-28-25.46-4.49-20.88-15.31-28.17-24.37-23.17-24.37-23.17,32.7-26.25,44.81-28,39.76-7,45,0,6.92,11.5,15.54,11,40.65,3,40.65-6.65,2.6-28.84,11.22-34.06,37.2,8.75,40.66,13.11,20.73,21.85,32,20.09,40.62-2.48,56.19,7.51,54.48,16.07,69.19,7.36,40.62-10.36,45-7.36c2.41,1.65,10.48,4,18.8,5.33,0,0-10.85,13-10.85,17.58s-8.1,20,0,18.13,23.38,0,31.48,0" transform="translate(-4.01 -1.81)"/><path class="ec1bdc9b-9510-463c-8a8a-10f21918e63e" d="M825.37,689.23c-.33,1.92,4.31,1.39,4.31,1.39l2.09-6.42s-3.46-3-4.24-4.73-4.24,1-4.24,1C823.29,683.3,825.71,687.31,825.37,689.23Z" transform="translate(-4.01 -1.81)"/><path class="ec1bdc9b-9510-463c-8a8a-10f21918e63e" d="M824.52,700.8c-2.83,0,.26,7.7,2.38,8.79s6.57,4.69,6.57,6.76-3.6,1.16-5.31.07-2.75,10.29-3.64,10.52-3.13-7.52-3.35-6-5.5,9-6.8,11.38-2.12,11.11-1.26,12c0,0,3.42-4.06,4.46-7.06s4.46-1.92,8.69-2.59,4-9.62,5.32-10.3,2.12,3.68,3.83,1.06,1-4.25,1.67-5.34,4.46,2,7.36,0-4.17-7.28-3.13-8.78,4.46,1.72,2.57-3.65-9.77-6-12.3-5.33S827.34,700.8,824.52,700.8Z" transform="translate(-4.01 -1.81)"/><path class="ec1bdc9b-9510-463c-8a8a-10f21918e63e" d="M810.14,725.43c-3-.63-7.62,10.71-8.07,13.3s-5.09.86-7,3.87,9.1,7,11.26,7.92c0,0,2.11,1.91,3.38,1.5s-2.12-6.42-1.27-8.15.63-3.64.63-8.15S813.11,726.07,810.14,725.43Z" transform="translate(-4.01 -1.81)"/><path class="ec1bdc9b-9510-463c-8a8a-10f21918e63e" d="M792.82,683.48s6.39,7.33,7.77,6.8-1.38-8.71.52-9.57,5.83,6.61,7.91,6.38,7.73,9.09,9.48,10.48,4.79-.34,4.79-1.54-4.12-2.44-4.12-4.21-4.13-5-4.46-6.76,3.93-2.77,3.08-4.2-6.72.37-8.1.71-3.42-1.58-4.64-4-7.4-1.54-9.29,0S795.05,683.48,792.82,683.48Z" transform="translate(-4.01 -1.81)"/><path class="ec1bdc9b-9510-463c-8a8a-10f21918e63e" d="M794.86,730.84c3.31-2.78,5.35-7.7,9-8.3s5.31-4,3.42-6.5-7.73.34-9.48-.52-.19-7.13-2.94-7.13-2.9,3.3-2.9,3.3c0,4.69,1.53,8.48-1.22,10.85S791.56,733.62,794.86,730.84Z" transform="translate(-4.01 -1.81)"/><path class="ec1bdc9b-9510-463c-8a8a-10f21918e63e" d="M854.47,758.85c-1.49-12.2-12.71-17.34-12.71-17.34l2.34,10.7s-4.27.45-5.94,0-3.61,3-5.95,1.91-1.89,7.06-4.46,6.65-4.68,3.87-7,4.92-2.11-3.42-9.77-6.65-6.13,6.65-8.92,7.92-8.47,2.6-10.18,7.29-1.82,8.26,1.49,7.74c1.07-.19,6.57-9.66,8.92-10.29s.85,2.37,2.34,4.28,5.31-.23,9.1-4.06,4.46,2.56,7.43,2.56,2.12,5.37.64,8.14-1.9.64-1.9,4.92,7.62,8.15,11.85,10.29,4.69-1.27,7-.63-1.49,4.09-.23,6.64,3.61-1.72,5.73-5.55-2.53-8.15-3.79-10.3,4-4.95,7.61-4.95,6.58,8.37,5.73,5.14,1.71-5.14,3.83-9S856,771.1,854.47,758.85Z" transform="translate(-4.01 -1.81)"/><path class="ec1bdc9b-9510-463c-8a8a-10f21918e63e" d="M777.66,688.37c-3.61-.87-10-4.36-11.37-1,0,0,8.8,6.79,9.66,12.35s.15,13.93,1.9,13.93,1.55-7.84,2.74-8.37,2.57-4.17,2.57-7.81S781.26,689.23,777.66,688.37Z" transform="translate(-4.01 -1.81)"/><path class="ec1bdc9b-9510-463c-8a8a-10f21918e63e" d="M783.16,657.2c0-5.56,1.22-5.93,1.22-5.93s9.15-4,10.67-4.7,0-6.27,0-6.27,4.31-2.93,3.86-6.42-4.19-6.09-4.9-11.31,4.83-10.43,2.79-11.34-5.69,3.68-7,3a80.36,80.36,0,0,0-12.45-5.9c-5.68-1.91-6.72,9.92-8.28,10.44s0,15.85,0,15.85-3.09,4.17-2.75,5.22,1.37,8.53,1.37,8.53-3.42.33-4.12,0-.75-5.53-2.23-5.71c-4.83-.64-.86,6-1,9.54S761.83,660,763,661s6.2,11.68,6.2,11.68.52-3.83,2.6-4.74,5.5,2.45,5.69,4.74-3.31.34-4.5,1.54-1.56,4.54.52,5.59,8.77,5.37,8.63,5,3.41-4.28,6.54-5.9-2.76-7.77-2.76-7.77S783.16,662.76,783.16,657.2Z" transform="translate(-4.01 -1.81)"/><path class="ec1bdc9b-9510-463c-8a8a-10f21918e63e" d="M755.58,718.07c-3.38-.56-3.38,6.8-3.38,9s-6.72,4-8.4,4.25-5,5.41-5.79,8.52-7.4,1.62-7.4,1.62-5.57,14.79-7,15.65-5.9,8.49-5.6,10.79,4.75,4.24,7.28,3.94,5.87-13.3,9.55-19.83,9.51-10.48,10.63-13.33,11.51-6.2,12.33-7.36S759.08,718.68,755.58,718.07Z" transform="translate(-4.01 -1.81)"/><path id="bd6ed49d-7217-4f5e-80f1-f48359addbbb" data-name="hkg" class="aba8244e-50db-43ab-9745-c4e239cf19d9" d="M630.35,584.54c1,4.16-5.73,8-5.73,8s-2.52,11.19-9.51,13.44-20.59-2.25-19.32-9.31,7.62-10.9,9.51-10.9,12.67-4.81,15.2-5.1,8.88-.34,9.85,3.83" transform="translate(-4.01 -1.81)"/><path class="ec1bdc9b-9510-463c-8a8a-10f21918e63e" d="M580,687.77c.07,5.48-3.42,17.61-9.22,18.78s-15.9,2.73-14.34,9-4.68,7.06-7,7.06-15,9.46-20.92,10.4a15.06,15.06,0,0,0-6.39-3.16c-7.21-1.46-11.3-12.39-15.31-19.41,0,0,3.12-18.78,0-24.26s11.63-18.82,19.36-16,21.33,1.54,24,4.29,7-3.91,13.56-2.75,15.5-4.69,15.5-4.69c-2.34,2.36.6,15.29.71,20.77" transform="translate(-4.01 -1.81)"/><path class="aba8244e-50db-43ab-9745-c4e239cf19d9" d="M566.55,636.84c-.23-2.17-2.9-5.74-5.72-8.67l5.57-.75c8.84,8.83,28,28,31.25,32.93,4,6.09,10.67,43.87,5.35,54s-33.41,18.21-33.41,22.9-27.38,15.55-29.39,12.17c-1.52-2.59-5.39-11.49-11.63-16.41,5.87-.94,18.58-10.4,20.92-10.4s8.51-.79,7-7.06,8.51-7.81,14.34-9,9.29-13.3,9.22-18.78-3-18.41-.71-20.77-1.93-11.75-1.93-17.24-10.48-9-10.85-12.92" transform="translate(-4.01 -1.81)"/><path class="aba8244e-50db-43ab-9745-c4e239cf19d9" d="M545.63,608.08c0-2.14-13.57-8.83-14.76-14.87s5.06.93,8.92-5.56S536.71,575,532.25,572s-13.38,1.35-18.43-3.5-.37-8.86-5-8.86-9.92-11.45-9.92-11.45c6.54.48,26.19-.45,33.7-4.73s14.53-12.89,18.73-9.5,21.07,8.07,19.21,10.92S562.42,559,587,564.52c-4,.67-27.35,18.89-32.7,29s4.68,26.32,8,29.7c.63.64,2.11,2.1,4.16,4.17l-5.58.75c-2.22-2.26-4.53-4.13-5.9-4.66-3.13-1.16-9.29-13.29-9.29-15.43" transform="translate(-4.01 -1.81)"/><path class="f07c8470-b6e9-4af8-8abf-0d0fd600df6d" d="M496.05,559.22c.93-3-3.75-11.45,2.83-11,0,0,5.28,11.45,9.92,11.45s0,4,5,8.87,14,.56,18.43,3.49,11.41,9.08,7.54,15.62-10.07-.45-8.92,5.56,14.76,12.73,14.76,14.87,6.16,14.27,9.29,15.43c1.37.53,3.68,2.4,5.9,4.66,2.83,2.93,5.51,6.5,5.73,8.67.37,3.91,10.85,7.44,10.85,12.92s4.27,14.88,1.93,17.24c0,0-8.92,5.9-15.49,4.7s-10.86,5.48-13.57,2.73c0,0,4.24-20,0-23.09s-11.18-16.07-10.81-19.19-2.38-9-7.21-13.33-9.89-9.16-13.75-5.19-14.42-1.46-19.62,3.23-14.5,8.23-14.9,3.16,4.64-18,5-19.38-5-8-8.92-7.43.34-6.16-2.56-8.68a76,76,0,0,1-6.58-7A58.49,58.49,0,0,0,476.4,572a4.16,4.16,0,0,0,1.07-3.49h0s3.57-13,6.84-9.32,10.78,3,11.7,0" transform="translate(-4.01 -1.81)"/><path id="bc2922c1-8726-482e-a2c2-99190d0efa48" data-name="bkk" class="a0d509b0-4555-475a-92e4-f6d4da4ed81d" d="M476.77,687.35c-5.91-2.4-5.5,8.46-8.62,20.32l-7.84-1.35c.18-.72.37-1.39.52-2.07,2.49-10.7-11.82-34.62-15.58-40.89s3.76-15.1,7-20.73-10.11-16.41-13.82-24-5-13.86-1.26-22.65S451.5,586,458.34,584.53c4.53-.94,8.8-3.6,12.63-7a76.19,76.19,0,0,0,6.58,7c2.9,2.52-1.3,9.24,2.56,8.68s9.29,6,8.92,7.43-5.42,14.27-5,19.38,9.7,1.54,14.9-3.16,15.72.79,19.62-3.22,8.88.9,13.75,5.18,7.54,10.18,7.21,13.33,6.54,16,10.81,19.19,0,23.1,0,23.1c-2.71-2.75-16.27-1.54-24-4.29s-22.49,10.56-19.36,16,0,24.26,0,24.26c-1.53-2.7-3.05-4.81-4.72-5.56-6-2.7-18.7-14.83-25.38-17.54" transform="translate(-4.01 -1.81)"/><path class="ec1bdc9b-9510-463c-8a8a-10f21918e63e" d="M466.77,712.33c-4.68,13.48-9.36,32.37-6.69,35.75s7.36,6.76,7.36,8.78,6,8.76,4,12.81,10,11.45,15.34,12.13,17.36,14.2,24.71,22.27,3.35,25.65,6,32.41,18.06,29,5.35,27.68S483.46,830.39,480.78,825s-13.34-37.1-17.35-45.18-20-18.93-15.35-33.08a68.43,68.43,0,0,0,2.79-15.36s6.57-14.42,9.44-25l7.83,1.35c-.37,1.54-.85,3.12-1.37,4.66" transform="translate(-4.01 -1.81)"/><path class="e78bb319-0a48-4b75-96d8-d010cfda5ee7" d="M445.26,663.36c3.75,6.27,18.05,30.19,15.56,40.89-.14.68-.33,1.36-.51,2.07-2.87,10.62-9.44,25-9.44,25a145.38,145.38,0,0,0-2.79-42c-4-17.57-14.05-46.75-14.05-46.75l-12-14v10.82h-10.7S396,656.3,391.41,653.59s-1.45-25.65-.11-33S378,586.11,366.58,577.36a30.41,30.41,0,0,1-5.31-5.33s2.71-14.95,6.21-16.12,8.66-29.18,13.26-29.77,12.12-23.33,16.17-28.59,9.25-14.56,15.57-20.42,15.61-2.33,14.46-9.32c0,0,7.72-15.62,12.7-12.28s5,4.77,5.62,8.15,9.32,13.41,6.83,25.35S433.44,507.28,434.66,513s-1.22,14.46,1.9,14.46,15.83-5.63,16-3.11-2.31,12.57,2.67,13.81,5.61,6.32,4.35,11.35,5.61,3.45,7.51,6.45c1.48,2.41,9.85,7.63,10.4,12.62a4.18,4.18,0,0,1-1.07,3.5,59.74,59.74,0,0,1-5.43,5.48c-3.83,3.41-8.1,6.08-12.63,7C451.5,586,440.91,587.2,437.15,596s-2.49,15.1,1.27,22.65,17.09,18.32,13.82,24-10.7,14.42-7,20.73" transform="translate(-4.01 -1.81)"/><path class="e78bb319-0a48-4b75-96d8-d010cfda5ee7" d="M352.46,466.05c-4,3.49,4.61,9.91,0,11.08s-34.63,1.16-40.42,0a3.76,3.76,0,0,1-1.12-.42c-2.45-1.42-2.68-5.59-2.64-9.19,0,0,8.66-13.52,14.6-11.87s9.52,7.28,13.46,5.86,11.63-2.71,16.12,4.54" transform="translate(-4.01 -1.81)"/><path class="aba8244e-50db-43ab-9745-c4e239cf19d9" d="M349.23,547c-4-6.76-24,8.78-27.35,7.43-1.67-.67-7.28.19-12.82,1.09.15-1,2.49-17.2,0-18.85s-3.75-9.62-4-13-18.8-9.12-11.07-12,16.31-3.61,14.87-6.46-14.24-12.24-9.74-17.54c2.3-2.7,5.13-4.17,7.88-4.17s5.24,1.35,7.32,4.17c4.27,5.75,10.22,1.43,10.48,5.3s-5.72,12.24,4,11.49,28.76-5.75,30.66,1.69,2.11,16.07-4.27,15.13-11.41-.49-12.38,4.32,0,15.85,3.09,13.44,7.61-13.21,11.4-12,10.26,17.88,10.15,28.89c-3.5,1.16-6.21,16.11-6.21,16.11-6.83-8.6-8.77-19.53-12-25" transform="translate(-4.01 -1.81)"/><path class="b110b35d-0bf9-4845-9b36-8ae5d1ccb86b" d="M357.33,527c-3.79-1.21-8.28,9.61-11.4,12s-4-8.63-3.09-13.44,6-5.29,12.38-4.32,6.16-7.7,4.27-15.13-20.92-2.41-30.66-1.69-3.79-7.67-4-11.5-6.21.45-10.48-5.29c-2.08-2.82-4.68-4.17-7.32-4.17l3.9-6.79a4,4,0,0,0,1.12.41c5.79,1.16,35.78,1.16,40.42,0s-4-7.59,0-11.08,17.88-15.17,21.37-14S385.35,439.8,390,441s17.87,4.08,22.48.59,4.64,8.75,10.4,11.08,2.9,8.15,4.05,15.17-8.1,3.5-14.45,9.32S401,492.3,396.91,497.56s-11.56,28-16.16,28.58-9.82,28.61-13.27,29.77c.11-11-6.32-27.67-10.15-28.87" transform="translate(-4.01 -1.81)"/><path class="ad30573c-a3e0-4450-babe-d87377c740d4" d="M157.37,332.43c-3.34-.75-8.69,8.53-8.69,8.53-2.31-3.76-12.6,0-12.6,0a19.35,19.35,0,0,0-7.81-6.57C122.33,332,117,324.21,112.85,315.8a7.61,7.61,0,0,0-4.2-3.76s-3.34-17.2-4.71-22.38-9-3.16-13.42-4.88c-1.45-.57-2.49-2.18-3.38-4.06,0,0,2-9.5,3.38-14.38s5.16-8,14.79-11.8S116,256.27,118,257.66s10-1.72,13.75-7.66,7.58-5.18,13.08-4,9.62-3.64,12.71-9.91,25.79-9.73,24.74-14.57a3.57,3.57,0,0,0-1.11-1.81s8.84-13.29,8.84-17-10.62-13.33-7.69-18.51-2.19-6.65-2.19-9.62,15-5.18,21.63-6.64,8.77,2.93,14.64,1.84-1.11-7.78-.75-14.09,8.44-21.48,11.75-21.81,9.51,3.68,15,3.3,8.07,3,12.82.38,3.65-12.21,7.32-21.11,15.76-13,19.44-17.39h17.83s13.61,15.93,24.38,23.17,18.88,20.88,15.31,28.17-1.63,23.7,28,25.46,43.92,23.32,43.92,31.62,10.78,11.68,27.87,12.24,53-6,57.53,0,38.64,20.58,53,14.23,48.54-17.53,53.93-14.23,40.42-9.38,40.42-18.47.9-29,9-25.39,36.83-3.49,37.75-8.56,18.85,3.08,25.16-11.46,16.17-8.18,24.27-7.24,22.81,6.34,24.45-2.74-17.28-22.72-25.34-22.72-23.38-1.81-31.48,0,0-13.6,0-18.15,10.85-17.57,10.85-17.57c6.58,1,13.31,1.43,17.5.26,9.52-2.62,39.77-44.27,40.62-47.46s-13.82-.61-13.82-7.59S797.72,3.8,820.2,13.41s42.52,3.49,46.34,25.35,1.19,40.33,10.71,43.34,16.42,6,17.31,13.67,19.89-1.09,23.34,7.66,3.46,24.45,13,23.58,41.07-17.46,47.34-11.34-.66,9.62-5,27.08S961.12,173.2,956,175.87s-18.17-.79-23.37,5.33c-4.2,5-1.22,23.21-5.42,30.35a5.26,5.26,0,0,1-4.24,2.85c-10.22.86-36.16,17.46-38.76,17.46s-2.57,11.68-6.91,11.53-15.12-11.53-17.06-8S827,251.81,824,267.61c-4.65-.67-35.38,17.54-38.72,16.19s2-14.83,8-20.92,2.68-8.75-7.36-10.1-18.69,12.81-26.72,12.81-5.31,11.49-10.66,13.48-19.36,3.38-21.37,10.14,14,6.76,20,8.11,2.68,14.83,8,14.83S772.6,304,776.62,304,800,310.8,800,315.53s-17.36,7.4-22,8.08-26,25-25.35,30.38,12.68,11.45,16,14.16,22.7,31.05,20,31.05-10.7,6.09-8,8.11,16.73,17.54,14.72,26.29-32.07,47.92-36.09,62.11-47.37,44.51-55.4,49.24-33.41,2.7-33.41,2.7-11.33,13.52-22.7,14.16-21.37,19.6-26.68,19.6-7.36-8.78-11.37-14.19-18.7-3.38-22.71-2.7c-24.53-5.56-18.32-16.75-16.43-19.61s-15-7.58-19.21-10.92-11.22,5.25-18.73,9.5-27.16,5.21-33.7,4.73-1.9,8-2.83,11-8.43,3.68-11.7,0-6.84,9.31-6.84,9.31h0c-.55-5-8.92-10.21-10.4-12.61-1.9-3-8.74-1.43-7.51-6.47s.63-10.06-4.34-11.33-2.49-11.31-2.68-13.83-12.9,3.12-16,3.12-.63-8.79-1.9-14.46S449.6,501,452.09,489s-6.2-22-6.84-25.34-.62-4.85-5.61-8.15-12.71,12.28-12.71,12.28c-1.15-7,1.71-12.85-4.05-15.18s-5.76-14.57-10.4-11.07-17.87.56-22.48-.61S377.29,453.21,373.83,452s-17.35,10.52-21.36,14c-4.5-7.25-12.16-5.93-16.13-4.55s-7.51-4.2-13.46-5.85-14.6,11.86-14.6,11.86c0-2.59.19-4.88-.26-5.56-.7-1-4.57-.37-8.18,1.74h0c-1.27-.19-24.08-3.27-28-1.43s-5.5-8.19-9.92-6.61-14-3.8-15.8-7.89-9.21-9.65-14-7.81-14-5.94-18.39-11.79-11-.83-13.23-.08-10.26-4-10.26-4c-3.46-8.75-28.83-19.86-32.89-28s8.07-7,12.71-9.91c3.16-2,.08-9.81-2.93-16.57v0c.37-.74,4.31-8.56,10.66-8.56,6.69,0,4.46-11.26,4.46-20s-5.94-7.4-10.36-10.41-11.16,2.63-14.5,1.88" transform="translate(-4.01 -1.81)"/><path class="ec1bdc9b-9510-463c-8a8a-10f21918e63e" d="M136.08,341s10.29-3.76,12.6,0,12.7,14.27,15,20.65c.71,2,2,4.85,3.42,7.93v0c3,6.76,6.09,14.54,2.93,16.56-4.64,2.93-16.76,1.73-12.71,9.92s29.44,19.26,32.89,28-8.66,4.66-8.66,10.48-.55,11.68,4.65,16.34S209.28,469,221.4,469A40.22,40.22,0,0,1,248,478.89c5.2,4.66,30,5.26,36.38,5.26S291,476,294,469.54a14.24,14.24,0,0,1,5.8-5.86h0c3.6-2.1,7.46-2.78,8.17-1.72.45.67.3,3,.26,5.55,0,3.61.19,7.78,2.64,9.2l-3.9,6.8c-2.75,0-5.58,1.47-7.88,4.17-4.5,5.3,8.32,14.65,9.74,17.54s-7.14,3.57-14.87,6.46,10.85,8.64,11.08,12,1.41,11.26,4,12.95.15,17.88,0,18.85v0c-5.46.9-10.89,1.92-12.56,1.58-3.35-.68-15.38,16.86-15.38,16.86s-14,16.19-25.35,18.89-37.42,27.68-41.39,38.45-31.59,22.27-31.59,22.27-3.16,22.27-.48,29-6.69,13.48-6,21.59-6.65,27-10.67,27-5.35,16.18-12,17.54-7.32,18.21-14,16.18-28-41.16-31.4-58-21.37-50.62-28-64.29-4-43-8-49.08-4.69-41.16-4.69-41.16l-6.65,4.73v9.42S42.73,573.3,38.09,572,8,551.71,19.39,551s18.7-10.13,18.7-10.13l-13.38,2S10,532.82,4,530.11c0,0,5.61-4.42,8-8.67s14.86-1.17,17.8-.38,10.11,1,15.46-6.19-8.92-14.39-10.11-19.79-8.88-13.78-8.29-19.19,5.32-8.38,10.08-14.39,13-1.19,22.55-3,5.32-13.78,21.37-25.76,15.42-22.2,20.74-31.77-4.13-18-7.1-26.33-10.11-21.06-3.57-22.27,30.25,0,41.55-2.4c6.35-1.31,6.09-5.33,3.64-9" transform="translate(-4.01 -1.81)"/><path class="e78bb319-0a48-4b75-96d8-d010cfda5ee7" d="M299.81,463.68a14.12,14.12,0,0,0-5.8,5.86c-3,6.42-3.34,14.61-9.66,14.61s-31.18-.6-36.38-5.26A40.25,40.25,0,0,0,221.4,469c-12.12,0-30-13.41-35.19-18.1s-4.65-10.48-4.65-16.34,12.12-1.73,8.66-10.47c0,0,8.06,4.76,10.26,4s8.84-5.78,13.23.08,13.6,13.67,18.39,11.79,12.11,3.72,14,7.81,11.38,9.5,15.8,7.88,5.87,8.46,9.92,6.62,26.76,1.24,28,1.42" transform="translate(-4.01 -1.81)"/><path class="ec1bdc9b-9510-463c-8a8a-10f21918e63e" d="M182.23,341c0,8.75,2.23,20-4.46,20-6.35,0-10.29,7.82-10.66,8.57-1.38-3.08-2.72-5.94-3.42-7.93-2.3-6.38-12.71-16.9-15-20.65,0,0,5.36-9.28,8.7-8.53s10-4.88,14.5-1.87,10.36,1.65,10.36,10.4" transform="translate(-4.01 -1.81)"/><path id="fc9bcee2-2a4a-4cff-90b7-dec3aa79641c" data-name="tpa" class="a3c398d7-626d-4f04-bc34-0f92b66e02ca" d="M801,509.09a.44.44,0,0,0-.06-.16.37.37,0,0,0-.13-.12,2.31,2.31,0,0,0-.57-.16.53.53,0,0,1-.18,0l-.2-.14a.9.9,0,0,1-.2-.19.43.43,0,0,1,0-.22l0-.28,0-.27a2.25,2.25,0,0,0-.81-1.47.53.53,0,0,0-.26-.13l-.12,0h-.23a1.23,1.23,0,0,0-.19,0l-.1,0h-.09a.42.42,0,0,1-.16,0,.59.59,0,0,1-.17-.1,1.48,1.48,0,0,1-.3-.31,2.19,2.19,0,0,0-.23-.21l-.11-.08-.09,0a.76.76,0,0,0-.16-.06.61.61,0,0,0-.24-.06h-.13a.44.44,0,0,0-.16,0l-.12.06s-.12,0-.15,0a.58.58,0,0,0-.17-.06l-.18-.05a.24.24,0,0,1-.14-.1l-.1-.1s0-.05-.06-.07l0,0s0,0,0,0a.6.6,0,0,0-.12-.11.53.53,0,0,1-.11-.09.75.75,0,0,1-.18-.43.64.64,0,0,0-.13-.37,4,4,0,0,0-.4-.27.66.66,0,0,1-.27-.4c0-.16,0-.34-.05-.5a1.9,1.9,0,0,0-.15-.42c-.08-.14-.15-.29-.22-.43a1,1,0,0,0-.29-.36,1.45,1.45,0,0,0-.82-.11h-.49a2.44,2.44,0,0,0-.53.14l-.23.07a.5.5,0,0,0-.24.09c-.06,0-.09.14-.13.2a.26.26,0,0,1-.12.11,3.43,3.43,0,0,0-.44.19.67.67,0,0,1-.28.06.31.31,0,0,0-.14.09.24.24,0,0,0-.09.13c0,.06,0,.12,0,.18s-.19.17-.31.15-.17.14-.22.25v0a3.78,3.78,0,0,0-.17.35c-.1.07-.13.27-.18.37a1.15,1.15,0,0,0-.06.17.76.76,0,0,1,0,.26c0,.1-.11.13-.19.19a1.64,1.64,0,0,0-.26.2,1.29,1.29,0,0,1-.21.19,1,1,0,0,1-.42.23,1.33,1.33,0,0,1-.48.05l-.27-.06a.53.53,0,0,0-.28,0c0,.08,0,.2-.12.22a1.15,1.15,0,0,1-.26,0,1.19,1.19,0,0,0-.26.05l-.24.08a5.08,5.08,0,0,1-.52.15l-.52.15-.29.06a2.81,2.81,0,0,1-.31.1,1.92,1.92,0,0,0-.56.22,5.21,5.21,0,0,1-.56.31l-.27.1a.36.36,0,0,1-.25,0,.65.65,0,0,0-.23-.06.83.83,0,0,0-.27,0,.75.75,0,0,0-.25.09s-.07.05-.1.06-.23,0-.31.07-.14.19-.23.27a2.53,2.53,0,0,1-.36.2,2.07,2.07,0,0,0-.75.43l-.2.21a.44.44,0,0,0-.13.14,3.82,3.82,0,0,1-.14.56c-.09.16-.2.32-.3.48a3.93,3.93,0,0,1-.29.42,1.37,1.37,0,0,1-.17.17c-.07.06-.14.09-.2.15a.9.9,0,0,0-.13.49,1.47,1.47,0,0,1-.5.86c-.11.1-.23.16-.34.27a.53.53,0,0,0-.2.42.41.41,0,0,1,0,.22,1.09,1.09,0,0,0-.1.25,3.4,3.4,0,0,0-.09.46l0,.2a.34.34,0,0,0,0,.14.33.33,0,0,1-.08.25.09.09,0,0,1-.1.05c-.14,0-.31-.08-.45,0s-.14.18-.2.27a2,2,0,0,0-.1.21.6.6,0,0,0,0,.23.3.3,0,0,1,.1.31c0,.1-.18.1-.28.12a.79.79,0,0,0-.29.11.25.25,0,0,0-.1.27c0,.1.17.13.17.24a.48.48,0,0,1-.35.08,1,1,0,0,0-.3,0h-.11c-.1,0-.2.06-.3,0l-.31-.06c-.15,0-.27.14-.41.17s-.34,0-.37.19,0,.12.08.17a.31.31,0,0,1,.06.21c0,.18-.21.18-.35.17s-.24.12-.34.25a1.58,1.58,0,0,1-.36.26,2.08,2.08,0,0,0-.34.24c-.11.11-.15.27-.28.35s-.1.06-.12.13a1.42,1.42,0,0,0,0,.2,1.46,1.46,0,0,1-.18.43,3,3,0,0,0-.19.45,3.82,3.82,0,0,1-.2.53c-.06.14-.14.33-.3.38s-.28.06-.39.2a3,3,0,0,0-.2.4.58.58,0,0,1-.27.33.42.42,0,0,0-.13.07.58.58,0,0,0-.19.27c0,.09,0,.21-.11.27a1.53,1.53,0,0,1-.22.16,1.5,1.5,0,0,0-.2.24,1.13,1.13,0,0,1-.25.24c-.17.13-.13.36-.21.54a.4.4,0,0,1-.15.19c-.08,0-.19.09-.24.18a3.4,3.4,0,0,0-.12.34.71.71,0,0,1-.17.21c-.12.11-.27.17-.39.27a.33.33,0,0,0-.13.21c0,.12-.07.22-.1.34s-.08.24-.11.36a1,1,0,0,1-.08.29c0,.07-.11.12-.15.19a.41.41,0,0,0-.06.24.65.65,0,0,0,.06.24l-.33.36c-.07,0-.11,0-.16,0a.18.18,0,0,0,0,.14s0,.1,0,.13-.22,0-.28,0a.23.23,0,0,0-.24,0c-.07.06-.1.14-.2.15a2.43,2.43,0,0,0-.27,0,4,4,0,0,0-.47.21c-.06,0-.13.06-.16.14a.62.62,0,0,0,0,.27,2.63,2.63,0,0,1,0,.56,2.34,2.34,0,0,1-.14.58,1.42,1.42,0,0,1-.33.36c-.14.12-.24.26-.38.38s-.31.13-.44.23-.14.23-.22.34a.87.87,0,0,1-.1.19,1.14,1.14,0,0,0-.13.3c0,.11,0,.2-.06.3a.45.45,0,0,1-.16.27c-.06.07-.06.17-.1.25a.43.43,0,0,1-.21.17.8.8,0,0,0-.23.18c-.07.09-.12.19-.19.27l-.21.25a.62.62,0,0,0-.12.29,1.42,1.42,0,0,1-.1.29c-.05.11-.11.2-.16.31a2.24,2.24,0,0,1-.11.31.56.56,0,0,1-.21.22.72.72,0,0,0-.25.21q-.11.15,0,.24l-.66.36c-.18.08-.17.28-.14.44a1.65,1.65,0,0,1,0,.44l-.06.12a.64.64,0,0,0,0,.2.49.49,0,0,1-.1.22.33.33,0,0,1-.31.11.3.3,0,0,0-.16,0c-.05,0-.06.13-.07.18a.78.78,0,0,1-.13.37s-.07.11-.11.16l0,.07c-.05.06-.11.11-.15.17l-.13.23c-.05.07-.08.14-.17.17s-.09,0-.13.06-.07.09-.1.13-.21.2-.31.32a2,2,0,0,0-.24.31.68.68,0,0,0-.07.2c0,.08,0,.15-.09.19s-.12,0-.15,0a.53.53,0,0,0,0,.18c0,.15,0,.3,0,.46a2.44,2.44,0,0,0,0,.47c0,.16,0,.31,0,.46s0,.2,0,.29a1.33,1.33,0,0,0,0,.21c0,.12,0,.28.06.36a.16.16,0,0,1,.07.15.71.71,0,0,0,0,.21c0,.06,0,.14.08.17s.13,0,.19,0a.19.19,0,0,1,.1.13c0,.06-.11.06-.15.07s-.07.34-.18.46-.09,0-.15,0-.06.1-.08.15,0,.26-.06.38a1.93,1.93,0,0,0,0,.48,3.38,3.38,0,0,1,0,.45,3.86,3.86,0,0,1-.1.49,1.06,1.06,0,0,1-.06.19.43.43,0,0,0,0,.25.36.36,0,0,0,.07.17s.17.22.1.28-.15,0-.19,0l-.09,0c-.07,0-.17-.11-.22,0a.48.48,0,0,0,0,.27,1.16,1.16,0,0,1,0,.18c0,.08,0,.16,0,.23a.3.3,0,0,0,0,.13c0,.06.1.11.14.15l.17.18c.06.06.2.17.18.27s-.2.12-.28.12c-.23,0-.51.05-.54.33a.58.58,0,0,1-.1.36,1.27,1.27,0,0,1-.27.25.72.72,0,0,0-.25.3.67.67,0,0,0,0,.37,1.53,1.53,0,0,1,.08.37,1.44,1.44,0,0,1-.09.51.78.78,0,0,1-.19.33.36.36,0,0,0-.11.32,2,2,0,0,1,0,.35,1.13,1.13,0,0,0,0,.41,1.21,1.21,0,0,1-.06.38.5.5,0,0,0,.07.38.84.84,0,0,0,.26.27c.09.06.19.07.28.12s.07.1.06.16a.43.43,0,0,0,0,.25c.06.09.18.09.27.12s.12.09.15.18.1.09.2.09.22,0,.24.07a.11.11,0,0,1,0,.08l0,.07a.23.23,0,0,0,0,.11s0,0,0,0,0,0,0,0a1.47,1.47,0,0,0-.08.28c0,.1-.05.18,0,.28a3,3,0,0,0,.16.36.24.24,0,0,1,0,.18,1.16,1.16,0,0,0,0,.18.88.88,0,0,0,0,.36.41.41,0,0,1,0,.16,2.42,2.42,0,0,0,0,.38c0,.1.07.19.1.29a1.94,1.94,0,0,1,.07.42.69.69,0,0,0,.15.34.68.68,0,0,1,.07.2,1.09,1.09,0,0,0,.09.23.5.5,0,0,0,0,.13.84.84,0,0,1,.06.14,1.5,1.5,0,0,1,.06.29.65.65,0,0,1,0,.28c0,.06-.09.16-.05.23a1,1,0,0,0,.13.23.47.47,0,0,1,.07.12l0,.12c0,.09.06.19.1.28a1,1,0,0,1,.08.31,4.16,4.16,0,0,0,.13.59,1.34,1.34,0,0,0,.09.24,1.45,1.45,0,0,1,0,.29c0,.19,0,.39.07.59s.05.21.07.31a1.34,1.34,0,0,1,0,.35,1.85,1.85,0,0,1,0,.33,1.35,1.35,0,0,0-.06.35c0,.08-.06.17,0,.24a.72.72,0,0,0,.11.19l.19.29a1.66,1.66,0,0,0,.18.35.88.88,0,0,0,.36.24c.09,0,.13,0,.14.14a.21.21,0,0,1,0,.08.13.13,0,0,1,0,.06h0c0,.13.13.2.18.31a1.52,1.52,0,0,0,.24.38,2.17,2.17,0,0,1,.31.37.65.65,0,0,1,.13.23c0,.08,0,.16-.1.15s-.19-.11-.24-.19-.12-.19-.18-.27-.14-.19-.2-.29a2.39,2.39,0,0,0-.12-.22,1.27,1.27,0,0,0-.1-.12c-.1-.14-.16-.31-.25-.44s-.21-.39-.4-.49-.1,0-.08.1a.76.76,0,0,0,.16.29c.13.19.23.4.37.59s.37.45.54.69a5.34,5.34,0,0,0,.42.55,1,1,0,0,0,.24.16.46.46,0,0,1,.18.16.8.8,0,0,0,.35.28,1.18,1.18,0,0,1,.32.23l.44.34c.12.1.3.19.41,0a.68.68,0,0,0,0-.54.5.5,0,0,1,.11-.47,1.21,1.21,0,0,0,.14-.2.83.83,0,0,0,0-.27c0-.06.05-.49.2-.34s0,.19,0,.27a1.73,1.73,0,0,1-.07.31.86.86,0,0,0-.07.36c0,.14,0,.29,0,.43s-.07.4-.09.6a.93.93,0,0,0,0,.29c0,.11.15.17.25.24l.15.08.22.15a2.27,2.27,0,0,1,.31.17.74.74,0,0,1,.12.17,1.06,1.06,0,0,0,.3.33.67.67,0,0,1,.15.14.44.44,0,0,0,.14.13c.09,0,.19,0,.28.09a.54.54,0,0,1,.12.09l.14.08.16.08.2.17.14.09a.31.31,0,0,1,.16.21,2.46,2.46,0,0,0,.09.29.6.6,0,0,0,.11.26s.08.06.11.09a.58.58,0,0,1,.1.12l.19.29a2.73,2.73,0,0,0,.23.25.81.81,0,0,1,.12.14.21.21,0,0,1,0,.12.57.57,0,0,1,0,.13.58.58,0,0,1,0,.14.57.57,0,0,0,0,.29,1.8,1.8,0,0,0,.08.21,2.84,2.84,0,0,1,.08.34,1.59,1.59,0,0,0,.12.27,2,2,0,0,1,.08.22.59.59,0,0,0,0,.19.68.68,0,0,0,.1.21l.1.14a.64.64,0,0,1,.06.18c0,.09,0,.18.06.28a.86.86,0,0,1,0,.17.51.51,0,0,1,0,.17c0,.07,0,.13,0,.2a1.37,1.37,0,0,0,0,.19c0,.07,0,.14,0,.21a1.7,1.7,0,0,0,0,.22s0,.06,0,.1,0,0,0,0a.13.13,0,0,0,0,.07l.06.07.05.06a.88.88,0,0,0,0,.15s.1.09.05.16l-.06,0a.24.24,0,0,0-.06.08.11.11,0,0,0,0,.1.38.38,0,0,1,0,.13.81.81,0,0,0-.07.22.47.47,0,0,1-.05.1.69.69,0,0,0,0,.13,1.54,1.54,0,0,0-.05.17s0,.09,0,.14a2,2,0,0,0,0,.24c0,.1,0,.21-.07.31a.28.28,0,0,0,0,.13s0,.07,0,.1a.57.57,0,0,1,0,.14s0,.07,0,.11,0,.1,0,.14a.28.28,0,0,0,0,.13l.12.25a2,2,0,0,1,.11.26.59.59,0,0,0,0,.13,1,1,0,0,0,0,.17,1.55,1.55,0,0,1,0,.21.48.48,0,0,1,0,.12V577a.2.2,0,0,0,0,.11.35.35,0,0,0,0,.08l.06.08a0,0,0,0,1,0,0,.88.88,0,0,1,.1.22.51.51,0,0,0,.09.18s.08.11.14.11.09-.06.12-.09a1,1,0,0,0,.17-.12.58.58,0,0,0,.11-.15.19.19,0,0,0,0-.09s0,0,.06,0,0,0,.05,0l.15,0,.08,0a1.42,1.42,0,0,0,.29.1l.11,0a.29.29,0,0,1,.12.07l.18.18.11.06.09.06.18.14a1.74,1.74,0,0,1,.22.18,1.29,1.29,0,0,0,.17.16l.15.12a1.55,1.55,0,0,0,.33.24c.11,0,.19,0,.26-.09a1.12,1.12,0,0,0,.2-.48.75.75,0,0,0-.06-.47.54.54,0,0,0-.27-.18.19.19,0,0,1-.15-.19,2.15,2.15,0,0,1,0-.51,2.5,2.5,0,0,1,.11-.53.22.22,0,0,1,.25-.13c.13,0,.25.07.38.08a.25.25,0,0,0,.25-.15,1.28,1.28,0,0,0,.07-.39c0-.32.13-.62.18-.93,0-.11,0-.23,0-.35s0-.41.07-.62a1,1,0,0,0,0-.25,1.94,1.94,0,0,0,0-.24c0-.06,0-.12,0-.18a1.08,1.08,0,0,1,0-.19c0-.06,0-.11,0-.18a1.23,1.23,0,0,1,0-.19c0-.1,0-.2,0-.3s0-.32,0-.48,0-.41,0-.61a1.16,1.16,0,0,1,0-.33c0-.12,0-.25.07-.37s0-.24,0-.36.06-.27.08-.42a1.55,1.55,0,0,1,0-.31c0-.1.06-.2.09-.3s.12-.38.17-.57l.06-.17.12-.29a.29.29,0,0,0,0-.09.5.5,0,0,1,0-.13l0-.14a.85.85,0,0,1,.13-.25,2.41,2.41,0,0,0,.15-.33,2.29,2.29,0,0,1,.14-.27c.1-.2.15-.41.23-.61a.26.26,0,0,1,.07-.11.39.39,0,0,1,.06-.11l.15-.27.09-.15a2,2,0,0,0,.09-.2.67.67,0,0,1,.06-.12.65.65,0,0,0,0-.13.76.76,0,0,0,.09-.18.44.44,0,0,0,0-.2,1.79,1.79,0,0,1,0-.23s0-.06,0-.09,0-.07,0-.11a1.9,1.9,0,0,1,.15-.42c.06-.14.11-.28.18-.42a1.6,1.6,0,0,1,.1-.23.56.56,0,0,0,.05-.08h0a.56.56,0,0,0,.07-.16c0-.06.07-.1.09-.15l.11-.21.11-.16c.07-.11.11-.24.19-.35a1.67,1.67,0,0,0,.18-.28,1.15,1.15,0,0,1,.3-.45,1.88,1.88,0,0,0,.23-.16,1.07,1.07,0,0,1,.22-.15,1.6,1.6,0,0,0,.21,0l.22-.13a.83.83,0,0,1,.15-.11.84.84,0,0,1,.18-.15l.26-.23a2.75,2.75,0,0,1,.26-.22s0,0,.07,0l.08,0,.16-.1c.05,0,.11,0,.15-.07a.42.42,0,0,0,.14-.09.23.23,0,0,0,.09-.08,1.11,1.11,0,0,1,.07-.16,1,1,0,0,1,.08-.14.52.52,0,0,1,.11-.1.57.57,0,0,0,.11-.11s.06-.09.1-.13a1.57,1.57,0,0,1,.2-.25l.09-.11a.44.44,0,0,0,.07-.22l0-.08a.59.59,0,0,0,0-.13s0,0,0-.07,0-.06,0-.09a.61.61,0,0,1,0-.19.19.19,0,0,0,0-.08s0-.05,0-.08a.42.42,0,0,1,.06-.14.58.58,0,0,1,.13-.14l.16-.15.13-.07.16,0,.28-.07a.3.3,0,0,0,.13,0,.28.28,0,0,0,.09-.07c.05,0,.08-.12.13-.18a1.3,1.3,0,0,0,.15-.18.54.54,0,0,0,.07-.13l.09-.12c0-.07.12-.13.17-.21a.6.6,0,0,0,.06-.19l0-.11a.5.5,0,0,0,0-.12.22.22,0,0,1,.09-.17l.18-.1a.46.46,0,0,0,.17-.17,2.86,2.86,0,0,0,.24-.42c.06-.12.1-.24.16-.34l.13-.23c.08-.14.15-.28.22-.42a.27.27,0,0,1,.09-.12,1,1,0,0,0,.13-.16l.06-.08.07-.06a.69.69,0,0,0,.11-.13.23.23,0,0,0,.07-.1c0-.09,0-.17,0-.25a.3.3,0,0,1,0-.1.65.65,0,0,1,.09-.16l.08-.09a1.7,1.7,0,0,1,.1-.14.25.25,0,0,1,.1-.08.67.67,0,0,0,.11-.14s.06-.1.1-.14l.07-.08.08-.07a.07.07,0,0,0,0,0,.43.43,0,0,1,0,0c0-.05,0-.07,0-.11l.08-.08h.1l.14,0c.09,0,.25,0,.3-.1a.36.36,0,0,0,0-.27c0-.07-.06-.12-.08-.19a1.08,1.08,0,0,1,0-.18.22.22,0,0,0,0-.08V551a.78.78,0,0,1,.05-.14l0-.16a.4.4,0,0,1,0-.15l.08-.09a.22.22,0,0,0,0-.22.37.37,0,0,1-.05-.11s0-.07,0-.11l.08-.08.06,0,0,0s.06-.06.1-.08a.17.17,0,0,0,.09-.08s0,0,0-.08l0-.07h0a.78.78,0,0,1,0-.22.78.78,0,0,0,0-.21l0-.14,0-.11a.05.05,0,0,0,0,0,.65.65,0,0,0,0-.13l0-.1a1.33,1.33,0,0,1,0-.28.73.73,0,0,1,.06-.21,1.8,1.8,0,0,0,.08-.21.46.46,0,0,1,.12-.23c.06-.07.1-.15.15-.21a1,1,0,0,1,.29-.26.75.75,0,0,0,.2-.15l.11-.11a.52.52,0,0,1,.1-.11.48.48,0,0,0,.09-.11.27.27,0,0,0,0-.11,1.43,1.43,0,0,0,.08-.22,1.86,1.86,0,0,0,0-.33c0-.12,0-.24.05-.36s0-.1,0-.15a.29.29,0,0,1,0-.1c0-.19.09-.37.15-.55s.17-.32.23-.49l.08-.18,0-.08a.05.05,0,0,1,0,0h0a.58.58,0,0,0,.05-.14l0-.13s0-.09,0-.14l0-.13,0-.1c0-.06,0-.13,0-.19a.71.71,0,0,0,0-.2,1.75,1.75,0,0,0,0-.24.51.51,0,0,0,0-.13.3.3,0,0,1,0-.1.2.2,0,0,1,.08-.17l.12-.11a1.77,1.77,0,0,1,.17-.12.16.16,0,0,0,0-.16.5.5,0,0,1,0-.12.59.59,0,0,1,0-.14,1.59,1.59,0,0,1,.06-.3c0-.15.08-.3.13-.45a.65.65,0,0,1,0-.13l.05-.13a2.81,2.81,0,0,1,.08-.31c0-.08.06-.15.08-.23a5,5,0,0,1,.17-.64.66.66,0,0,0,0-.15,1,1,0,0,1,.05-.16s0-.09.07-.13.1-.26.15-.38,0-.2.07-.3,0-.08,0-.12a.29.29,0,0,1,0-.1c0-.07,0-.15.08-.22s.05-.17.08-.26,0-.38.09-.56,0-.16.07-.24l.07-.11a.61.61,0,0,1,.07-.14.76.76,0,0,0,.06-.16,1,1,0,0,1,.07-.15,1.63,1.63,0,0,0,.11-.23A1.31,1.31,0,0,1,789,536l0-.11s0-.08,0-.13l0-.09.09-.2a1.33,1.33,0,0,1,.06-.12l0,0,0-.06a.59.59,0,0,1,.1-.17,1,1,0,0,0,.11-.23,1.8,1.8,0,0,1,.1-.33l.12-.2a1.5,1.5,0,0,0,.15-.23.31.31,0,0,0,.08-.11.25.25,0,0,1,0-.07.58.58,0,0,0,0-.14.45.45,0,0,1,0-.11.47.47,0,0,0,0-.37.48.48,0,0,1-.1-.17.65.65,0,0,1,0-.14,2,2,0,0,1,.09-.35.51.51,0,0,1,.14-.26,1.81,1.81,0,0,0,.27-.18s0-.09.09-.14l.08-.09c.06-.09.1-.19.15-.28l.08-.14.08-.16s.07-.08.06-.14-.07-.07-.11-.09a.53.53,0,0,1-.2-.22s0,0,0,0a.78.78,0,0,1-.16-.2c0-.09,0-.22,0-.32s0-.16,0-.25,0-.13,0-.2a.78.78,0,0,0,0-.16.76.76,0,0,0,0-.15.42.42,0,0,1,0-.13.31.31,0,0,1,.11-.09c.16-.08.33-.12.49-.19a.32.32,0,0,0,.19-.23,2.72,2.72,0,0,0,.07-.33.25.25,0,0,1,0-.08l0,0a.38.38,0,0,0,0-.15,1.48,1.48,0,0,1,0-.21c0-.06,0-.12,0-.18a.2.2,0,0,1,0-.11,1.39,1.39,0,0,0,.15-.19l.12-.17a1.57,1.57,0,0,0,.2-.3.37.37,0,0,1,.07-.14,1.07,1.07,0,0,1,.14-.16l0-.06.11,0a.67.67,0,0,0,.15-.06c.11-.09.23-.15.33-.24l.2-.13c.07,0,.14,0,.2-.09a1,1,0,0,0,.28-.22,2.75,2.75,0,0,0,.22-.26,1.19,1.19,0,0,0,.19-.35c.08-.31.14-.62.22-.92a.79.79,0,0,1,.14-.34.69.69,0,0,1,.11-.13l0,0h0l0-.05.08-.12a.1.1,0,0,0,0-.08v-.07s0,0,0,0,0-.08,0-.12a.5.5,0,0,1,0-.12.64.64,0,0,1,.06-.18l.11-.15a1.28,1.28,0,0,0,.15-.25.92.92,0,0,1,.13-.24,1,1,0,0,1,.14-.15,1.74,1.74,0,0,0,.11-.18,1.38,1.38,0,0,1,.19-.28l.1-.08.11-.11a1.73,1.73,0,0,1,.23-.24.25.25,0,0,1,.12-.08h0l0,0h0l0,0,.06,0a.26.26,0,0,1,.16-.07.28.28,0,0,0,.11-.08.22.22,0,0,0,0-.14.54.54,0,0,0-.08-.21.35.35,0,0,0-.07-.09s0-.05,0-.09,0,0,0-.06,0-.08,0-.12l0-.13c0-.1.06-.18.16-.19a.68.68,0,0,0,.25-.09l.11,0,.06,0h.06s0,0,0,0h0s0,0,0,0a.13.13,0,0,0,0-.06.71.71,0,0,0,0-.25c0-.05,0-.09,0-.14l0-.13a.34.34,0,0,1,.15-.22s.06,0,.06-.08a.16.16,0,0,0,0-.1c0-.08-.1-.12-.13-.2a.82.82,0,0,1-.06-.27s0-.07,0-.11a.2.2,0,0,0,0-.13l-.07-.08a.54.54,0,0,1-.1-.16,1,1,0,0,0,0-.1l0-.06-.1-.17a.64.64,0,0,1,0-.07.43.43,0,0,1,0-.07.53.53,0,0,0-.06-.1l-.06-.07a.83.83,0,0,1,0-.31,1.19,1.19,0,0,1-.05-.32c0-.14,0-.28,0-.43v-.15c0-.05,0-.09,0-.14a1.36,1.36,0,0,0,0-.2s0-.11,0-.17a.19.19,0,0,1,0-.14s.06,0,.07-.09a.53.53,0,0,0,0-.12.75.75,0,0,0,0-.16,1.09,1.09,0,0,0-.05-.17.39.39,0,0,0-.1-.16.66.66,0,0,1-.15-.3,1.17,1.17,0,0,1,0-.11v-.1l0-.12v0a.49.49,0,0,0,.05-.2.65.65,0,0,1,0-.2c0-.11.05-.21.07-.32a.59.59,0,0,0,0-.17,1.23,1.23,0,0,0,0-.19s0-.1,0-.14,0-.09,0-.14a.62.62,0,0,1,.09-.27c0-.08,0-.17.08-.25a.8.8,0,0,1,.13-.22,1.53,1.53,0,0,0,.14-.21,2.14,2.14,0,0,1,.13-.19.22.22,0,0,1,.09-.07l.07,0s0,0,0,0l.14-.08.09,0,.1-.1.2-.19a3.83,3.83,0,0,0,.48-.41l.21-.15.19-.14.1-.09a.5.5,0,0,1,.11-.1,2.26,2.26,0,0,0,.26-.16l.2-.1.18-.15h0a1.1,1.1,0,0,1,.14-.09l.17-.07.25-.09.13-.06.12,0,.2-.06a.67.67,0,0,0,.18-.07c.11-.07,0-.21,0-.31" transform="translate(-4.01 -1.81)"/></svg>